<?xml version="1.0" standalone="no"?>
<!DOCTYPE svg PUBLIC "-//W3C//DTD SVG 1.1//EN" "http://www.w3.org/Graphics/SVG/1.1/DTD/svg11.dtd" >
<svg xmlns="http://www.w3.org/2000/svg">
<metadata>Generated by IcoMoon</metadata>
<defs>
<font id="icomoon" horiz-adv-x="1024">
<font-face units-per-em="1024" ascent="960" descent="-64" />
<missing-glyph horiz-adv-x="1024" />
<glyph unicode="&#x20;" d="" horiz-adv-x="512" />
<glyph unicode="&#xe600;" d="M130.336 116.704l48.192-48.192c18.080-18.080 48.192-18.080 66.272 0l189.728 189.728c45.184-27.104 96.384-42.176 153.6-42.176 168.672 0 316.224 147.584 316.224 316.224s-138.528 307.2-307.2 307.2-316.224-147.584-316.224-316.224c0-60.224 18.080-114.432 45.184-159.616l-186.72-186.72c-18.112-18.048-27.136-42.144-9.056-60.224zM588.096 309.472c-114.432 0-210.816 93.376-210.816 210.816s105.408 222.88 222.88 222.88c114.432 0 210.816-93.376 210.816-210.816s-108.416-222.88-222.88-222.88z" />
<glyph unicode="&#xe601;" d="M885.459 182.965l-186.729 186.729c27.106 45.176 45.176 99.388 45.176 159.624 0 168.659-147.576 316.235-316.235 316.235s-307.2-138.541-307.2-307.2c0-168.659 147.576-316.235 316.235-316.235 57.224 0 108.424 15.059 153.6 42.165l189.741-189.741c18.071-18.071 48.188-18.071 66.259 0l48.188 48.188c15.059 18.071 9.035 42.165-9.035 60.235zM213.835 538.353c0 117.459 96.376 210.824 210.824 210.824 117.459 0 222.871-105.412 222.871-222.871s-96.376-210.824-210.824-210.824-222.871 105.412-222.871 222.871zM554.165 556.424h-99.388v99.388h-54.212v-99.388h-102.4v-54.212h102.4v-99.388h54.212v99.388h99.388z" />
<glyph unicode="&#xe602;" d="M328.282 502.212l54.212-168.659h177.694l-144.565-105.412 57.224-168.659-144.565 102.4-144.565-102.4 54.212 168.659-144.565 105.412h177.694z" />
<glyph unicode="&#xe603;" d="M415.624 333.553l30.118-84.329 114.447 84.329z" />
<glyph unicode="&#xe604;" d="M334.306 634.729v-69.271c24.094-3.012 45.176-21.082 51.2-42.165l42.165-126.494h132.518c36.141 0 63.247-27.106 63.247-63.247 0-21.082-12.047-42.165-27.106-51.2l-105.412-78.306 15.059-51.2 259.012-87.341v454.776l-430.682 114.447z" />
<glyph unicode="&#xe605;" d="M846.306 565.459v-400.565l84.329-33.129v448.753z" />
<glyph unicode="&#xe606;" d="M686.682 646.776v48.188c0 24.094-3.012 63.247-21.082 93.365 3.012 3.012 6.024 9.035 9.035 12.047 9.035 9.035 21.082 12.047 39.153 9.035 63.247-9.035 60.235-99.388 60.235-105.412v-57.224l33.129-6.024v66.259c3.012 42.165-12.047 126.494-87.341 135.529-24.094 3.012-45.176-3.012-63.247-18.071-3.012-3.012-6.024-6.024-9.035-9.035-12.047 9.035-27.106 15.059-45.176 18.071-24.094 3.012-45.176-3.012-63.247-18.071-39.153-33.129-39.153-99.388-39.153-102.4v-60.235h3.012l-9.035-6.024-111.435-6.024 382.494-102.4 54.212 39.153 96.376 15.059-228.894 54.212zM656.565 694.965v-39.153l-117.459 27.106-9.035-6.024v33.129c0 15.059 6.024 57.224 27.106 78.306 9.035 9.035 24.094 12.047 39.153 9.035s24.094-6.024 33.129-15.059c-12.047-30.118-12.047-63.247-12.047-63.247v-39.153l33.129-6.024v45.176c0 6.024 0 15.059 3.012 24.094 3.012-21.082 3.012-45.176 3.012-48.188z" />
<glyph unicode="&#xe607;" d="M942.682 661.835l-246.965-141.553v147.576c0 21.082-18.071 39.153-39.153 39.153h-536.094c-24.094 0-39.153-18.071-39.153-39.153v-463.812c0-21.082 18.071-39.153 39.153-39.153h536.094c21.082 0 39.153 18.071 39.153 39.153v150.588l246.965-123.482v430.682z" />
<glyph unicode="&#xe608;" d="M993.882 746.165c-36.141-15.059-72.282-27.106-114.447-30.118 39.153 24.094 72.282 63.247 87.341 108.424-39.153-24.094-81.318-39.153-126.494-48.188-36.141 39.153-87.341 63.247-141.553 63.247-108.424 0-198.776-87.341-198.776-198.776 0-15.059 3.012-30.118 6.024-45.176-165.647 9.035-310.212 87.341-409.6 207.812-18.071-30.118-27.106-63.247-27.106-99.388 0-69.271 36.141-129.506 87.341-165.647-33.129 0-63.247 9.035-90.353 24.094 0 0 0-3.012 0-3.012 0-96.376 69.271-174.682 159.624-192.753-15.059-3.012-33.129-6.024-51.2-6.024-12.047 0-24.094 0-36.141 3.012 24.094-78.306 99.388-135.529 183.718-138.541-66.259-54.212-153.6-84.329-246.965-84.329-15.059 0-33.129 0-48.188 3.012 87.341-57.224 192.753-90.353 304.188-90.353 364.424 0 563.2 301.176 563.2 563.2 0 9.035 0 18.071 0 24.094 39.153 30.118 72.282 66.259 99.388 105.412z" />
<glyph unicode="&#xe609;" d="M647.529 544.376c-6.024 12.047 129.506 132.518 51.2 231.906-18.071 24.094-81.318-108.424-168.659-168.659-48.188-33.129-162.635-102.4-162.635-141.553v-252.988c0-48.188 180.706-96.376 319.247-96.376 51.2 0 123.482 316.235 123.482 364.424-3.012 51.2-159.624 51.2-162.635 63.247zM328.282 541.365c-24.094 0-111.435-15.059-111.435-114.447v-177.694c0-99.388 87.341-111.435 111.435-111.435s-36.141 21.082-36.141 84.329v234.918c0 63.247 60.235 84.329 36.141 84.329z" />
<glyph unicode="&#xe60a;" d="M252.988 441.976h108.424v-159.624h-108.424v159.624zM581.271 496.188h108.424v-216.847h-108.424v216.847zM421.647 658.824h108.424v-379.482h-108.424v379.482zM740.894 387.765h108.424v-108.424h-108.424v108.424zM201.788 225.129v487.906h-57.224v-542.118h734.871v54.212z" />
<glyph unicode="&#xe60b;" d="M512 888.32c-243.136 0-440.32-197.184-440.32-440.32 0-243.2 197.184-440.32 440.32-440.32 243.2 0 440.32 197.12 440.32 440.32 0 243.136-197.12 440.32-440.32 440.32zM547.84 91.392v197.888h-71.68v-197.888c-169.312 16.8-303.936 151.456-320.768 320.768h197.888v71.68h-197.888c16.832 169.312 151.456 303.968 320.768 320.768v-197.888h71.68v197.888c169.376-16.8 303.968-151.456 320.768-320.768h-197.888v-71.68h197.888c-16.8-169.312-151.392-303.968-320.768-320.768z" />
<glyph unicode="&#xe60c;" d="M801.129 694.965h-578.259c-42.165 0-78.306-36.141-78.306-78.306v-355.388c0-42.165 36.141-78.306 78.306-78.306h578.259c42.165 0 78.306 36.141 78.306 78.306v355.388c0 42.165-36.141 78.306-78.306 78.306zM804.141 306.447c0-27.106-24.094-51.2-51.2-51.2h-57.224v147.576c0 21.082-15.059 36.141-36.141 36.141s-36.141-15.059-36.141-36.141v-147.576h-75.294v219.859c0 21.082-15.059 36.141-36.141 36.141s-36.141-15.059-36.141-36.141v-219.859h-72.282v147.576c0 21.082-15.059 36.141-36.141 36.141s-36.141-15.059-36.141-36.141v-147.576h-63.247c-27.106 0-51.2 24.094-51.2 51.2v262.024c0 27.106 24.094 51.2 51.2 51.2h484.894c27.106 0 51.2-24.094 51.2-51.2v-262.024z" />
<glyph unicode="&#xe60d;" d="M340.329 749.176v72.282c0 9.035-9.035 18.071-18.071 18.071h-186.729c-9.035 0-15.059-9.035-15.059-18.071v-69.271h135.529l69.271-415.624v-60.235h-48.188v-72.282c0-6.024 3.012-12.047 6.024-15.059-24.094-12.047-39.153-36.141-39.153-63.247 0-39.153 30.118-69.271 69.271-69.271s69.271 30.118 69.271 69.271c0 24.094-12.047 48.188-33.129 60.235h331.294c-21.082-12.047-33.129-33.129-33.129-60.235 0-39.153 30.118-69.271 69.271-69.271s69.271 30.118 69.271 69.271c0 24.094-12.047 48.188-33.129 60.235h90.353c9.035 0 18.071 9.035 18.071 18.071v78.306h-421.647c-48.188 0-51.2 84.329-9.035 96.376l457.788 78.306c9.035 3.012 15.059 12.047 15.059 21.082v271.059h-563.2zM394.541 451.012l-39.153 207.812h460.8v-129.506l-421.647-78.306z" />
<glyph unicode="&#xe60e;" d="M885.459 176.941l-186.729 186.729c27.106 45.176 45.176 99.388 45.176 159.624 0 168.659-147.576 316.235-316.235 316.235s-307.2-138.541-307.2-307.2c0-168.659 147.576-316.235 316.235-316.235 57.224 0 108.424 15.059 153.6 42.165l189.741-189.741c18.071-18.071 48.188-18.071 66.259 0l48.188 48.188c18.071 18.071 9.035 42.165-9.035 60.235zM213.835 532.329c0 117.459 96.376 210.824 210.824 210.824 117.459 0 222.871-105.412 222.871-222.871s-96.376-210.824-210.824-210.824-222.871 105.412-222.871 222.871z" />
<glyph unicode="&#xe60f;" d="M136.322 209.070c-75.196 0-136.292-61.334-136.292-136.076 0-75.154 61.1-135.802 136.292-135.802 75.466 0 136.494 60.648 136.494 135.802-0.002 74.742-61.024 136.076-136.494 136.076zM0.184 612.070v-196.258c127.784 0 247.958-49.972 338.459-140.512 90.384-90.318 140.282-211.038 140.282-339.3h197.122c-0.002 372.82-303.283 676.070-675.863 676.070zM0.416 960v-196.356c455.783 0 826.758-371.334 826.758-827.644h196.856c0 564.47-459.255 1024-1023.614 1024z" />
<glyph unicode="&#xe610;" d="M512 839.529l96.376-298.165h316.235l-256-186.729 96.376-298.165-252.988 183.718-252.988-183.718 96.376 298.165-256 186.729h316.235z" />
<glyph unicode="&#xe611;" d="M575.247 98.635l-81.318 78.306 262.024 262.024v-174.682c66.259 6.024 129.506 87.341 171.671 156.612v385.506l-427.671 96.376-445.741-141.553v-587.294l439.718-105.412 81.318 30.118zM728.847 237.176v120.471l-180.706-180.706 180.706-180.706v129.506c120.471-36.141 219.859 138.541 219.859 138.541v132.518c0-6.024-120.471-204.8-219.859-159.624z" />
<glyph unicode="&#xe612;" d="M259.012 321.506c-6.024 0-12.047 0-18.071-3.012-24.094-6.024-42.165-30.118-42.165-54.212 0-33.129 27.106-57.224 57.224-57.224 24.094 0 45.176 15.059 54.212 36.141 3.012 6.024 6.024 15.059 6.024 24.094 3.012 27.106-24.094 54.212-57.224 54.212zM307.2 420.894c81.318 18.071 141.553 90.353 141.553 177.694 0 30.118-6.024 57.224-18.071 81.318-30.118 60.235-90.353 102.4-162.635 102.4-84.329 0-156.612-57.224-174.682-135.529l87.341-39.153c6.024 39.153 39.153 69.271 81.318 69.271 6.024 0 12.047 0 18.071-3.012 36.141-9.035 63.247-42.165 63.247-81.318 0-45.176-36.141-81.318-78.306-81.318h-6.024c0 0-3.012 0-3.012 0v0h-45.176v-129.506h96.376v39.153zM277.082 381.741v0c3.012 0 6.024 0 12.047 0h-12.047zM903.529 676.894h-409.6c9.035-24.094 15.059-48.188 15.059-75.294 0-96.376-63.247-177.694-147.576-207.812v-33.129c39.153-24.094 66.259-66.259 66.259-117.459 0-3.012 0-3.012 0-6.024h292.141l123.482-123.482v123.482h60.235c18.071 0 33.129 15.059 33.129 33.129v373.459c0 18.071-15.059 33.129-33.129 33.129z" />
<glyph unicode="&#xe613;" d="M743.906 255.247c-108.424 39.153-141.553 72.282-141.553 141.553 0 42.165 33.129 27.106 48.188 105.412 6.024 33.129 36.141 0 39.153 75.294 0 30.118-15.059 36.141-15.059 36.141s9.035 42.165 12.047 75.294c3.012 42.165-27.106 150.588-174.682 150.588s-177.694-108.424-171.671-147.576c3.012-33.129 12.047-75.294 12.047-75.294s-15.059-6.024-15.059-36.141c6.024-72.282 33.129-42.165 39.153-75.294 15.059-78.306 48.188-63.247 48.188-105.412 0-69.271-33.129-102.4-141.553-141.553s-177.694-78.306-177.694-105.412c0-27.106 0-90.353 0-90.353h816.188c0 0 0 63.247 0 90.353 0 21.082-69.271 63.247-177.694 102.4z" />
<glyph unicode="&#xe614;" d="M834.259 484.141h-234.918v234.918h-72.282v-234.918h-234.918v-72.282h234.918v-234.918h72.282v234.918h234.918z" />
<glyph unicode="&#xe615;" d="M512 514.259c-60.235 0-108.424-48.188-108.424-108.424s48.188-108.424 108.424-108.424c60.235 0 108.424 48.188 108.424 108.424s-48.188 108.424-108.424 108.424zM798.118 619.671h-84.329c-12.047 0-24.094 9.035-27.106 21.082l-24.094 66.259c-3.012 12.047-18.071 21.082-30.118 21.082h-240.941c-12.047 0-24.094-9.035-27.106-21.082l-21.082-66.259c-3.012-12.047-15.059-21.082-27.106-21.082h-90.353c-39.153 0-72.282-33.129-72.282-72.282v-322.259c0-39.153 33.129-72.282 72.282-72.282h572.235c39.153 0 72.282 33.129 72.282 72.282v322.259c0 42.165-33.129 72.282-72.282 72.282zM512 228.141c-99.388 0-177.694 81.318-177.694 177.694 0 99.388 81.318 177.694 177.694 177.694 99.388 0 177.694-81.318 177.694-177.694 0-99.388-78.306-177.694-177.694-177.694zM774.024 499.2c-15.059 0-24.094 12.047-24.094 24.094 0 15.059 12.047 24.094 24.094 24.094 15.059 0 24.094-12.047 24.094-24.094s-12.047-24.094-24.094-24.094z" />
<glyph unicode="&#xe616;" d="M144.565 776.282c-30.118-36.141-93.365-210.824 183.718-496.941 295.153-301.176 484.894-234.918 515.012-201.788l-195.765 195.765c-27.106-27.106-63.247-3.012-129.506 51.2-45.176 36.141-96.376 84.329-141.553 141.553-30.118 39.153-60.235 78.306-30.118 108.424l-201.788 201.788zM915.576 149.835c12.047 12.047 12.047 33.129 0 45.176v0c0 0-153.6 153.6-153.6 153.6-12.047 12.047-30.118 12.047-42.165 0l-57.224-60.235 195.765-195.765c3.012 0 57.224 57.224 57.224 57.224v0zM415.624 646.776c12.047 12.047 12.047 33.129 0 45.176v0c0 0-156.612 156.612-156.612 156.612-12.047 12.047-30.118 12.047-42.165 0l-57.224-57.224 201.788-201.788c0 3.012 54.212 57.224 54.212 57.224v0z" />
<glyph unicode="&#xe617;" d="M867.388 737.129c-81.318 75.294-216.847 75.294-298.165 0l-57.224-51.2-57.224 51.2c-81.318 75.294-216.847 75.294-298.165 0-93.365-84.329-93.365-222.871 0-310.212l355.388-325.271 355.388 325.271c93.365 87.341 93.365 225.882 0 310.212z" />
<glyph unicode="&#xe618;" d="M774.024 565.459v3.012c0 150.588-117.459 271.059-262.024 271.059s-262.024-120.471-262.024-271.059v-3.012c-3.012-27.106-3.012-237.929 262.024-508.988 265.035 271.059 265.035 481.882 262.024 508.988zM512 444.988c-72.282 0-132.518 60.235-132.518 132.518s60.235 132.518 132.518 132.518 132.518-60.235 132.518-132.518c0-72.282-60.235-132.518-132.518-132.518z" />
<glyph unicode="&#xe619;" d="M563.2 261.271c0 63.247 48.188 96.376 123.482 147.576 93.365 63.247 210.824 138.541 210.824 322.259 0 15.059-12.047 30.118-30.118 30.118h-144.565c-24.094 36.141-87.341 78.306-210.824 78.306s-186.729-42.165-207.812-78.306h-144.565c-18.071 0-30.118-12.047-30.118-30.118 0-183.718 117.459-259.012 210.824-322.259 75.294-51.2 123.482-84.329 123.482-147.576v-54.212c-81.318-9.035-138.541-39.153-138.541-75.294 0-42.165 84.329-75.294 189.741-75.294s189.741 33.129 189.741 75.294c0 36.141-60.235 66.259-138.541 75.294v54.212zM680.659 478.118c24.094 51.2 42.165 120.471 45.176 222.871h105.412c-9.035-114.447-78.306-171.671-150.588-222.871zM512 788.329c117.459 0 162.635-48.188 162.635-66.259s-45.176-66.259-162.635-66.259c-117.459 0-162.635 48.188-162.635 66.259s45.176 66.259 162.635 66.259zM189.741 700.988h105.412c3.012-102.4 21.082-171.671 45.176-222.871-69.271 51.2-138.541 108.424-150.588 222.871z" />
<glyph unicode="&#xe61a;" d="M108.725 249.766h204.71v-206.908h-204.71v206.908zM408.395 249.766h204.71v-206.908h-204.71v206.908zM108.725 548.744h204.71v-206.908h-204.71v206.908zM408.395 548.744h204.71v-206.908h-204.71v206.908zM108.604 850.071h204.981v-204.981h-204.981v204.981zM409.781 850.071h204.981v-204.981h-204.981v204.981zM708.066 249.766h204.71v-206.908h-204.71v206.908zM708.066 548.744h204.71v-206.908h-204.71v206.908zM710.957 850.071h204.981v-204.981h-204.981v204.981z" />
<glyph unicode="&#xe61b;" d="M111.616 848.384h318.886v-318.886h-318.886v318.886zM567.868 813.779h370.146v-68.969h-370.146v68.969zM567.868 633.073h370.146v-68.969h-370.146v68.969zM111.616 366.502h318.886v-318.886h-318.886v318.886zM567.868 331.896h370.146v-68.969h-370.146v68.969zM567.868 151.191h370.146v-68.969h-370.146v68.969z" />
<glyph unicode="&#xe61c;" d="M156.612 643.765c0-66.259 21.082-114.447 66.259-141.553 36.141-24.094 78.306-27.106 99.388-27.106 6.024 0 9.035 0 12.047 0 0 0-6.024-45.176 27.106-87.341v0c-57.224 0-243.953-12.047-243.953-165.647 0-156.612 171.671-165.647 204.8-165.647 3.012 0 3.012 0 3.012 0s3.012 0 6.024 0c21.082 0 78.306 3.012 132.518 27.106 69.271 33.129 102.4 90.353 102.4 171.671 0 78.306-54.212 126.494-93.365 159.624-24.094 21.082-45.176 39.153-45.176 57.224s15.059 30.118 33.129 48.188c30.118 27.106 60.235 66.259 60.235 141.553 0 66.259-9.035 108.424-60.235 135.529 6.024 3.012 24.094 6.024 33.129 6.024 27.106 3.012 69.271 9.035 69.271 30.118v3.012h-201.788c0 0-204.8-6.024-204.8-192.753zM484.894 240.188c3.012-63.247-48.188-108.424-129.506-114.447s-147.576 30.118-153.6 93.365c-3.012 30.118 12.047 60.235 36.141 84.329 27.106 24.094 63.247 39.153 102.4 42.165 6.024 0 9.035 0 15.059 0 75.294 0 126.494-45.176 129.506-105.412zM433.694 685.929c21.082-69.271-9.035-144.565-57.224-156.612-6.024-3.012-12.047-3.012-18.071-3.012-45.176 0-87.341 45.176-105.412 105.412-9.035 33.129-9.035 63.247 3.012 93.365 9.035 30.118 30.118 48.188 51.2 54.212 6.024 3.012 12.047 3.012 18.071 3.012 51.2 0 87.341-21.082 108.424-96.376zM777.035 532.329v132.518h-84.329v-132.518h-132.518v-84.329h132.518v-132.518h84.329v132.518h132.518v84.329h-132.518z" />
<glyph unicode="&#xe61d;" d="M225.882 637.741c-9.035 0-18.071 6.024-18.071 15.059s6.024 18.071 15.059 18.071c9.035 0 18.071-6.024 18.071-15.059 3.012-9.035-6.024-18.071-15.059-18.071zM780.047 207.059c-24.094 30.118-33.129 69.271-12.047 96.376 12.047 18.071 21.082 48.188 21.082 72.282 0 45.176-51.2 111.435-123.482 126.494-42.165 6.024-93.365 6.024-129.506 12.047-105.412 15.059-135.529 57.224-135.529 99.388 0 51.2 48.188 66.259 69.271 66.259 84.329 12.047 189.741-48.188 265.035-159.624-45.176 141.553-141.553 210.824-252.988 243.953 114.447-9.035 186.729-63.247 262.024-159.624-57.224 177.694-210.824 225.882-298.165 231.906-105.412 6.024-189.741-24.094-252.988-117.459-12.047-18.071-21.082-60.235-24.094-78.306s-15.059-54.212-21.082-66.259c6.024-9.035 15.059-18.071 24.094-21.082 0 0-6.024-9.035 3.012-33.129 3.012-12.047 15.059-24.094 15.059-42.165 0-15.059-12.047-42.165-12.047-42.165s33.129 24.094 39.153 42.165c6.024 18.071-3.012 24.094 0 42.165 0 3.012 3.012 18.071 15.059 24.094 6.024 3.012 12.047 6.024 21.082 3.012 15.059-3.012 24.094-18.071 21.082-33.129-6.024-21.082-24.094-60.235-39.153-99.388-21.082-57.224-12.047-99.388 33.129-153.6-3.012-81.318-24.094-168.659-21.082-189.741 0-9.035 9.035-12.047 18.071-15.059h51.2l6.024 24.094c39.153 177.694 147.576 219.859 256 207.812 69.271-9.035 150.588-87.341 141.553-201.788 0-9.035-3.012-18.071 0-24.094 3.012-9.035 9.035-9.035 18.071-12.047h54.212l9.035 12.047c-15.059 21.082-30.118 102.4-21.082 144.565z" />
<glyph unicode="&#xe61e;" d="M213.835 517.271c0 24.094 18.071 42.165 42.165 42.165h560.188l-78.306 249.976c-6.024 24.094-30.118 36.141-54.212 27.106l-569.224-177.694c-24.094-6.024-36.141-30.118-27.106-54.212l114.447-364.424c3.012-6.024 6.024-12.047 12.047-18.071v295.153zM605.365 258.259v-69.271c9.035 3.012 15.059 6.024 21.082 12.047s9.035 15.059 9.035 24.094c0 9.035-3.012 15.059-6.024 21.082-6.024 6.024-12.047 9.035-24.094 12.047zM563.2 366.682c-3.012-6.024-6.024-12.047-6.024-18.071s3.012-12.047 6.024-18.071c3.012-6.024 9.035-9.035 18.071-12.047v63.247c-9.035-3.012-15.059-9.035-18.071-15.059zM894.494 523.294h-596.329c-24.094 0-42.165-18.071-42.165-42.165v-382.494c0-24.094 18.071-42.165 42.165-42.165h596.329c24.094 0 42.165 18.071 42.165 42.165v382.494c3.012 24.094-18.071 42.165-42.165 42.165zM659.576 176.941c-12.047-15.059-30.118-24.094-54.212-27.106v-33.129h-27.106v33.129c-21.082 3.012-36.141 9.035-51.2 24.094-12.047 12.047-21.082 30.118-24.094 54.212l48.188 6.024c3.012-9.035 6.024-18.071 12.047-24.094s12.047-12.047 18.071-15.059v72.282c-24.094 6.024-39.153 18.071-51.2 30.118-12.047 15.059-15.059 30.118-15.059 48.188 0 21.082 6.024 36.141 18.071 48.188s30.118 21.082 48.188 24.094v18.071h27.106v-18.071c18.071-3.012 33.129-9.035 45.176-18.071 12.047-12.047 18.071-24.094 21.082-42.165l-45.176-6.024c-3.012 15.059-9.035 24.094-21.082 30.118v-69.271c30.118-9.035 48.188-18.071 57.224-30.118s15.059-27.106 15.059-48.188c0-24.094-6.024-42.165-21.082-57.224z" />
<glyph unicode="&#xe61f;" d="M957.741 56.471c0 0-3.012 168.659-12.047 186.729-15.059 27.106-51.2 45.176-117.459 72.282s-87.341 51.2-87.341 99.388c0 30.118 21.082 21.082 30.118 75.294 3.012 24.094 21.082 0 24.094 51.2 0 21.082-9.035 27.106-9.035 27.106s6.024 30.118 6.024 54.212c3.012 30.118-15.059 105.412-105.412 105.412s-108.424-75.294-105.412-105.412c3.012-24.094 6.024-54.212 6.024-54.212s-9.035-6.024-9.035-27.106c3.012-51.2 21.082-30.118 24.094-51.2 9.035-54.212 30.118-45.176 30.118-75.294 0-33.129-9.035-54.212-36.141-75.294 144.565-72.282 162.635-87.341 162.635-150.588v-132.518h198.776zM521.035 288.376c-87.341 36.141-117.459 69.271-117.459 135.529 0 39.153 27.106 27.106 39.153 99.388 6.024 30.118 30.118 0 33.129 69.271 0 27.106-12.047 33.129-12.047 33.129s6.024 42.165 9.035 72.282c3.012 39.153-18.071 141.553-141.553 141.553-120.471 0-144.565-102.4-141.553-141.553 3.012-30.118 9.035-72.282 9.035-72.282s-12.047-6.024-12.047-33.129c6.024-69.271 27.106-39.153 33.129-69.271 12.047-72.282 39.153-60.235 39.153-99.388 0-66.259-27.106-96.376-117.459-135.529-27.106-12.047-75.294-27.106-75.294-69.271v-162.635h617.412c0 0 0 96.376 0 120.471 3.012 39.153-72.282 75.294-162.635 111.435z" />
<glyph unicode="&#xe620;" d="M843.294 655.812c-445.741-177.694-265.035 301.176-611.388 48.188l-69.271-27.106 141.553-560.188h78.306l-69.271 274.071c307.2 259.012 183.718-280.094 548.141 246.965 6.024 15.059-3.012 24.094-18.071 18.071z" />
<glyph unicode="&#xe621;" d="M93.365 685.929c0-30.118 24.094-54.212 51.2-54.212h90.353c27.106 0 51.2 24.094 51.2 54.212s-24.094 54.212-51.2 54.212h-90.353c-27.106 0-51.2-24.094-51.2-54.212zM286.118 429.929c0 30.118-24.094 54.212-51.2 54.212h-90.353c-27.106 0-51.2-24.094-51.2-54.212s24.094-54.212 51.2-54.212h90.353c27.106 0 51.2 24.094 51.2 54.212zM286.118 173.929c0 30.118-24.094 54.212-51.2 54.212h-90.353c-27.106 0-51.2-24.094-51.2-54.212s24.094-54.212 51.2-54.212h90.353c27.106 0 51.2 24.094 51.2 54.212zM367.435 685.929c0-30.118 24.094-54.212 51.2-54.212h460.8c27.106 0 51.2 24.094 51.2 54.212s-24.094 54.212-51.2 54.212h-460.8c-30.118 0-51.2-24.094-51.2-54.212zM930.635 429.929c0 30.118-24.094 54.212-51.2 54.212h-460.8c-27.106 0-51.2-24.094-51.2-54.212s24.094-54.212 51.2-54.212h460.8c27.106 0 51.2 24.094 51.2 54.212zM930.635 173.929c0 30.118-24.094 54.212-51.2 54.212h-460.8c-27.106 0-51.2-24.094-51.2-54.212s24.094-54.212 51.2-54.212h460.8c27.106 0 51.2 24.094 51.2 54.212z" />
<glyph unicode="&#xe622;" d="M82.251 275.396h136.674v-136.674h-136.674v136.674zM340.51 258.078h583.921v-102.039h-583.921v102.039zM82.251 516.337h136.674v-136.674h-136.674v136.674zM340.51 499.019h583.921v-102.039h-583.921v102.039zM82.251 757.278h136.674v-136.674h-136.674v136.674zM340.51 739.96h583.921v-102.039h-583.921v102.039z" />
<glyph unicode="&#xe623;" d="M737.882 700.988h-123.482c-15.059 0-30.118-18.071-30.118-45.176v-90.353h156.612v-126.494h-156.612v-385.506h-147.576v385.506h-135.529v126.494h132.518v75.294c0 108.424 75.294 195.765 177.694 195.765h123.482v-135.529z" />
<glyph unicode="&#xe624;" d="M120.471 670.871c24.094-12.047 337.318-180.706 349.365-189.741 12.047-6.024 27.106-9.035 42.165-9.035s30.118 3.012 42.165 9.035c12.047 9.035 328.282 177.694 349.365 189.741 24.094 12.047 45.176 51.2 3.012 51.2h-789.082c-42.165 0-21.082-39.153 3.012-51.2zM915.576 577.506c-27.106-12.047-343.341-180.706-361.412-189.741-15.059-9.035-27.106-9.035-42.165-9.035s-27.106 0-42.165 9.035c-15.059 9.035-334.306 174.682-361.412 189.741-18.071 9.035-18.071-3.012-18.071-9.035 0-9.035 0-343.341 0-343.341 0-21.082 27.106-45.176 45.176-45.176h749.929c21.082 0 45.176 24.094 45.176 45.176 0 0 0 334.306 0 343.341 3.012 6.024 3.012 18.071-15.059 9.035z" />
<glyph unicode="&#xe625;" d="M840.282 776.282c-72.282 72.282-126.494 60.235-126.494 60.235l-542.118-542.118-51.2-237.929 237.929 51.2 542.118 542.118c3.012 0 12.047 54.212-60.235 126.494zM346.353 134.776l-81.318-18.071c-9.035 15.059-18.071 30.118-36.141 48.188s-33.129 27.106-48.188 36.141l18.071 81.318 24.094 24.094c0 0 45.176 0 93.365-51.2 51.2-51.2 51.2-93.365 51.2-93.365l-21.082-27.106z" />
<glyph unicode="&#xe626;" d="M144.565 700.988h734.871v-54.212h-734.871v54.212zM144.565 538.353h487.906v-54.212h-487.906v54.212zM144.565 375.718h653.553v-54.212h-653.553v54.212zM144.565 213.082h379.482v-54.212h-379.482v54.212z" />
<glyph unicode="&#xe627;" d="M786.071 261.271l-186.729 186.729 186.729 186.729c24.094 24.094 6.024 45.176-18.071 72.282-24.094 24.094-45.176 42.165-72.282 18.071l-183.718-189.741-186.729 186.729c-24.094 24.094-45.176 6.024-69.271-18.071s-42.165-45.176-18.071-69.271l186.729-186.729-186.729-186.729c-24.094-24.094-6.024-45.176 18.071-72.282 24.094-24.094 45.176-42.165 72.282-18.071l186.729 186.729 186.729-186.729c24.094-24.094 45.176-6.024 72.282 18.071 18.071 27.106 36.141 48.188 12.047 72.282z" />
<glyph unicode="&#xe628;" d="M512 878.080c-237.568 0-430.080-192.608-430.080-430.080 0-237.568 192.576-430.080 430.080-430.080s430.080 192.576 430.080 430.080c0 237.504-192.576 430.080-430.080 430.080zM600.512 448l156.736-156.736-88.512-88.512-156.736 156.736-156.736-156.736-88.48 88.512 156.672 156.736-156.672 156.672 88.48 88.512 156.736-156.672 156.736 156.672 88.512-88.48-156.736-156.736z" />
<glyph unicode="&#xe629;" d="M295.153 146.824c0 0 0 0 0 0l-99.388 105.412-93.365 99.388c-3.012 3.012-3.012 6.024-6.024 6.024l42.165-45.176 111.435-117.459 45.176-48.188zM337.318 104.659l-42.165 42.165c0 0 0 0 0 0l42.165-42.165zM921.6 725.082l-81.318-108.424-117.459-153.6-93.365-126.494-96.376-129.506-36.141-48.188-3.012-3.012-63.247-81.318c-6.024-6.024-12.047-12.047-18.071-15.059-3.012-3.012-6.024-3.012-12.047-3.012v0c0 0-3.012 0-3.012 0-3.012 0-6.024 0-9.035 3.012-6.024 3.012-12.047 6.024-21.082 15.059l-30.118 33.129-42.165 39.153-42.165 45.176-111.435 117.459-42.165 48.188c-21.082 27.106 0 54.212 30.118 81.318 30.118 30.118 60.235 51.2 90.353 18.071l84.329-87.341 72.282-78.306c3.012-3.012 6.024-6.024 12.047-6.024s9.035 3.012 12.047 6.024v0l105.412 141.553 93.365 126.494 123.482 162.635 72.282 96.376c27.106 33.129 57.224 15.059 90.353-9.035 36.141-24.094 63.247-48.188 36.141-84.329z" />
<glyph unicode="&#xe62a;" d="M846.306 839.529h-668.612c-60.235 0-111.435-51.2-111.435-111.435v-391.529c0-60.235 51.2-111.435 111.435-111.435h222.871l222.871-168.659v168.659h222.871c60.235 0 111.435 51.2 111.435 111.435v391.529c3.012 60.235-48.188 111.435-111.435 111.435z" />
<glyph unicode="&#xe62b;" d="M701.741 682.918c42.165 0 78.306 36.141 78.306 78.306s-36.141 78.306-78.306 78.306c-42.165 0-78.306-36.141-78.306-78.306s36.141-78.306 78.306-78.306zM792.094 432.941l-90.353 162.635c-42.165 69.271-102.4 114.447-171.671 114.447-45.176 0-90.353-21.082-126.494-54.212-33.129-27.106-66.259-66.259-90.353-114.447-18.071-36.141-30.118-75.294-33.129-108.424-12.047 3.012-24.094 6.024-39.153 6.024-105.412 0-189.741-84.329-189.741-189.741s84.329-189.741 189.741-189.741c105.412 0 189.741 84.329 189.741 189.741 0 3.012 0 3.012 0 6.024 42.165 30.118 99.388 102.4 99.388 262.024 0 3.012 0 12.047 0 12.047 0 21.082 9.035 39.153 27.106 54.212 3.012 3.012 15.059 9.035 15.059 9.035 9.035 6.024 18.071 6.024 30.118 9.035 48.188 0 69.271-48.188 69.271-48.188l66.259-120.471c-81.318-21.082-144.565-93.365-144.565-183.718 0-105.412 84.329-189.741 189.741-189.741s189.741 84.329 189.741 189.741c-3.012 96.376-81.318 177.694-180.706 183.718zM243.953 110.682c-75.294 0-135.529 60.235-135.529 135.529s60.235 135.529 135.529 135.529c12.047 0 24.094-3.012 36.141-6.024 3.012-60.235 24.094-108.424 66.259-129.506 15.059-15.059 30.118-15.059 30.118-15.059-9.035-69.271-63.247-120.471-132.518-120.471zM472.847 420.894c-3.012-48.188-36.141-84.329-75.294-81.318-36.141 3.012-63.247 45.176-57.224 93.365 3.012 48.188 36.141 84.329 72.282 81.318 39.153-3.012 66.259-45.176 60.235-93.365zM780.047 110.682c-75.294 0-135.529 60.235-135.529 135.529s60.235 135.529 135.529 135.529c75.294 0 135.529-60.235 135.529-135.529s-60.235-135.529-135.529-135.529z" />
<glyph unicode="&#xe62c;" d="M768 381.741c-18.071 18.071-219.859 210.824-219.859 210.824-9.035 9.035-24.094 15.059-36.141 15.059s-27.106-6.024-36.141-15.059c0 0-201.788-189.741-219.859-210.824-18.071-18.071-21.082-54.212 0-75.294s48.188-21.082 72.282 0l183.718 174.682 183.718-174.682c24.094-21.082 54.212-21.082 72.282 0 21.082 21.082 18.071 54.212 0 75.294z" />
<glyph unicode="&#xe62d;" d="M445.741 704c18.071-18.071 210.824-219.859 210.824-219.859 9.035-9.035 15.059-24.094 15.059-36.141s-6.024-27.106-15.059-36.141c0 0-189.741-201.788-210.824-219.859-18.071-18.071-54.212-21.082-75.294 0s-21.082 48.188 0 72.282l174.682 183.718-174.682 183.718c-21.082 24.094-21.082 54.212 0 72.282 21.082 21.082 54.212 18.071 75.294 0z" />
<glyph unicode="&#xe62e;" d="M578.259 704c-18.071-18.071-210.824-219.859-210.824-219.859-9.035-9.035-15.059-24.094-15.059-36.141s6.024-27.106 15.059-36.141c0 0 189.741-201.788 210.824-219.859 18.071-18.071 54.212-21.082 75.294 0s21.082 48.188 0 72.282l-174.682 183.718 174.682 183.718c21.082 24.094 21.082 54.212 0 72.282-21.082 21.082-54.212 18.071-75.294 0z" />
<glyph unicode="&#xe62f;" d="M768 514.259c-18.071-18.071-219.859-210.824-219.859-210.824-9.035-9.035-24.094-15.059-36.141-15.059s-27.106 6.024-36.141 15.059c0 0-201.788 189.741-219.859 210.824-18.071 18.071-21.082 54.212 0 75.294s48.188 21.082 72.282 0l183.718-174.682 183.718 174.682c24.094 21.082 54.212 21.082 72.282 0 21.082-21.082 18.071-54.212 0-75.294z" />
<glyph unicode="&#xe630;" d="M512 960c-194.432 0-352-157.568-352-352 0-128.992 118.016-265.696 160.992-385.76 64.096-179.040 56.992-286.24 191.008-286.24 136 0 126.88 106.688 191.008 285.504 43.104 120.32 160.992 258.496 160.992 386.496 0 194.432-157.632 352-352 352zM594.944 90.368l-158.656-19.808c-5.664 16.384-11.744 35.552-19.136 60.576-0.096 0.32-0.224 0.672-0.288 0.992l198.016 24.736c-2.816-9.44-5.824-19.36-8.448-28.256-4.192-14.368-7.936-26.848-11.488-38.24zM407.552 162.944c-5.824 19.264-12.384 39.552-19.68 61.056h248.512c-3.936-11.488-7.872-23.008-11.264-33.888l-217.568-27.168zM512 0c-32.416 0-47.328 3.744-63.904 40l135.616 16.992c-19.648-52.928-33.952-56.992-71.712-56.992zM661.504 288h-298.656c-15.936 34.56-35.072 69.12-53.952 102.944-41.76 74.72-84.896 152-84.896 217.056 0 158.816 129.184 288 288 288s288-129.184 288-288c0-64.576-43.2-142.272-84.992-217.44-18.688-33.696-37.696-68.192-53.504-102.56zM512 800c8.8 0 16-7.168 16-16s-7.168-16-16-16c-88.224 0-160-71.776-160-160 0-8.832-7.168-16-16-16s-16 7.168-16 16c0 105.888 86.112 192 192 192z" />
</font>
</defs>
</svg>
